<svg width="39" height="39" viewBox="0 0 39 39" fill="none" xmlns="http://www.w3.org/2000/svg">
<path d="M14.6045 8.74015C15.5638 5.93286 19.4427 5.84784 20.58 8.48509L20.6763 8.74176L21.9708 12.5276C22.2675 13.3958 22.7469 14.1903 23.3768 14.8575C24.0066 15.5247 24.7722 16.0491 25.6219 16.3952L25.97 16.5252L29.7558 17.8181C32.5631 18.7774 32.6482 22.6563 30.0125 23.7936L29.7558 23.8899L25.97 25.1845C25.1015 25.4809 24.3067 25.9603 23.6392 26.5901C22.9717 27.22 22.4471 27.9857 22.1008 28.8355L21.9708 29.182L20.6779 32.9695C19.7186 35.7768 15.8397 35.8618 14.7039 33.2262L14.6045 32.9695L13.3115 29.1836C13.015 28.3151 12.5357 27.5203 11.9059 26.8528C11.276 26.1853 10.5103 25.6607 9.66045 25.3144L9.31395 25.1845L5.52812 23.8915C2.71922 22.9322 2.6342 19.0533 5.27145 17.9176L5.52812 17.8181L9.31395 16.5252C10.1822 16.2285 10.9767 15.7491 11.6439 15.1192C12.3111 14.4894 12.8354 13.7238 13.1816 12.8741L13.3115 12.5276L14.6045 8.74015ZM30.4745 3.20898C30.7746 3.20898 31.0687 3.29317 31.3234 3.45197C31.578 3.61077 31.783 3.83782 31.9151 4.10732L31.9921 4.29501L32.5535 5.94088L34.201 6.50234C34.5017 6.60452 34.7654 6.79368 34.9585 7.04585C35.1517 7.29803 35.2656 7.60186 35.2859 7.91885C35.3061 8.23584 35.2318 8.55171 35.0724 8.82644C34.913 9.10116 34.6756 9.32237 34.3903 9.46203L34.201 9.53903L32.5551 10.1005L31.9937 11.748C31.8913 12.0486 31.702 12.3121 31.4497 12.5051C31.1975 12.6981 30.8936 12.8118 30.5766 12.8319C30.2596 12.852 29.9438 12.7776 29.6692 12.618C29.3946 12.4585 29.1735 12.221 29.034 11.9357L28.957 11.748L28.3955 10.1021L26.748 9.54063C26.4473 9.43845 26.1836 9.24929 25.9905 8.99711C25.7974 8.74494 25.6834 8.44111 25.6632 8.12412C25.6429 7.80713 25.7172 7.49126 25.8766 7.21653C26.0361 6.94181 26.2735 6.7206 26.5587 6.58094L26.748 6.50394L28.3939 5.94248L28.9554 4.29501C29.0635 3.97806 29.2682 3.70292 29.5406 3.50816C29.8131 3.3134 30.1396 3.20878 30.4745 3.20898Z" fill="white"/>
</svg>
