<svg width="37" height="28" viewBox="0 0 37 28" fill="none" xmlns="http://www.w3.org/2000/svg">
<path d="M13.873 5.0082e-06C10.1937 5.0082e-06 6.66502 1.46162 4.06332 4.06333C1.46162 6.66503 0 10.1937 0 13.873C0 17.5524 1.46162 21.0811 4.06332 23.6828C6.66502 26.2845 10.1937 27.7461 13.873 27.7461H27.7461C28.994 27.7471 30.2292 27.4955 31.3773 27.0065C32.5254 26.5175 33.5626 25.8013 34.4266 24.9009C35.2906 24.0004 35.9635 22.9345 36.4046 21.7672C36.8458 20.5999 37.0462 19.3554 36.9938 18.1086C36.9413 16.8618 36.6371 15.6385 36.0994 14.5124C35.5617 13.3863 34.8017 12.3806 33.8651 11.556C32.9286 10.7313 31.8348 10.1047 30.6497 9.71394C29.4645 9.32314 28.2126 9.17621 26.9692 9.282C25.482 9.4069 24.0471 9.88986 22.787 10.6897C21.5269 11.4894 20.4791 12.5823 19.733 13.8749C19.4801 14.2848 19.0773 14.5799 18.6102 14.6975C18.143 14.815 17.6485 14.7457 17.2317 14.5043C16.8149 14.2629 16.5087 13.8684 16.3782 13.4048C16.2477 12.9411 16.3032 12.4448 16.533 12.0215C17.4493 10.4337 18.6924 9.05858 20.18 7.98715C21.6675 6.91573 23.3657 6.17239 25.162 5.80634C23.8792 4.0089 22.1854 2.54413 20.2217 1.53412C18.258 0.524116 16.0813 -0.00187241 13.873 5.0082e-06Z" fill="white"/>
</svg>
