<svg width="28" height="35" viewBox="0 0 28 35" fill="none" xmlns="http://www.w3.org/2000/svg">
<path fill-rule="evenodd" clip-rule="evenodd" d="M15.9163 0.564286C16.8995 -0.614858 18.8144 0.190942 18.6588 1.71854L17.5606 12.4491H26.4446C26.7402 12.4492 27.0296 12.5335 27.279 12.6922C27.5284 12.8508 27.7274 13.0773 27.8528 13.3449C27.9782 13.6126 28.0247 13.9105 27.9868 14.2037C27.949 14.4968 27.8285 14.7731 27.6393 15.0003L12.0833 33.6674C11.1002 34.8466 9.18523 34.0408 9.34079 32.5132L10.439 21.7827H1.55502C1.25943 21.7826 0.969995 21.6982 0.7206 21.5396C0.471206 21.3809 0.272178 21.1545 0.146821 20.8868C0.0214651 20.6191 -0.0250301 20.3212 0.0127804 20.0281C0.0505908 19.7349 0.171142 19.4586 0.360317 19.2315L15.9163 0.564286Z" fill="white"/>
</svg>
