<svg width="36" height="32" viewBox="0 0 36 32" fill="none" xmlns="http://www.w3.org/2000/svg">
<path fill-rule="evenodd" clip-rule="evenodd" d="M12.425 19.5251C12.4237 20.9112 12.9629 22.2432 13.9281 23.2381C14.8932 24.2329 16.2083 24.8122 17.5938 24.8529C18.9793 24.8936 20.3261 24.3924 21.3479 23.4559C22.3698 22.5193 22.9862 21.2213 23.0662 19.8375L23.0751 19.5251H35.5001V28.4001C35.5004 29.2957 35.1621 30.1584 34.5532 30.8151C33.9442 31.4718 33.1095 31.8741 32.2164 31.9412L31.9501 31.9501H3.55001C2.65439 31.9504 1.79175 31.6121 1.13503 31.0031C0.478312 30.3942 0.0760471 29.5594 0.00887523 28.6663L0 28.4001V19.5251H12.425ZM17.7501 15.9751C18.2208 15.9751 18.6723 16.1621 19.0052 16.4949C19.3381 16.8278 19.5251 17.2793 19.5251 17.7501V19.5251C19.5251 19.9958 19.3381 20.4473 19.0052 20.7802C18.6723 21.1131 18.2208 21.3001 17.7501 21.3001C17.2793 21.3001 16.8278 21.1131 16.4949 20.7802C16.1621 20.4473 15.9751 19.9958 15.9751 19.5251V17.7501C15.9751 17.2793 16.1621 16.8278 16.4949 16.4949C16.8278 16.1621 17.2793 15.9751 17.7501 15.9751ZM17.7501 1.85006e-07C19.796 -0.000417394 21.7793 0.706068 23.3642 1.99989C24.9492 3.29371 26.0384 5.09539 26.4476 7.10002H31.9501C32.8916 7.10002 33.7946 7.47404 34.4603 8.1398C35.1261 8.80555 35.5001 9.70851 35.5001 10.65V15.9751H22.7733C22.4066 14.9357 21.7265 14.0357 20.8269 13.3991C19.9272 12.7625 18.8522 12.4207 17.7501 12.4207C16.6479 12.4207 15.5729 12.7625 14.6733 13.3991C13.7736 14.0357 13.0935 14.9357 12.7268 15.9751H0V10.65C0 9.70851 0.374018 8.80555 1.03977 8.1398C1.70553 7.47404 2.60849 7.10002 3.55001 7.10002H9.05253C9.46172 5.09539 10.551 3.29371 12.1359 1.99989C13.7208 0.706068 15.7041 -0.000417394 17.7501 1.85006e-07ZM17.7501 3.55001C16.7046 3.54987 15.6822 3.85748 14.8104 4.43448C13.9386 5.01148 13.2559 5.83234 12.8475 6.79472L12.7268 7.10002H22.7698C22.4028 6.06194 21.723 5.16315 20.824 4.52739C19.925 3.89163 18.8511 3.55017 17.7501 3.55001Z" fill="white"/>
</svg>
