<svg width="35" height="34" viewBox="0 0 35 34" fill="none" xmlns="http://www.w3.org/2000/svg">
<path fill-rule="evenodd" clip-rule="evenodd" d="M0 1.75C0 1.28587 0.184374 0.840752 0.512563 0.512563C0.840752 0.184374 1.28587 0 1.75 0H33.25C33.7141 0 34.1592 0.184374 34.4874 0.512563C34.8156 0.840752 35 1.28587 35 1.75C35 2.21413 34.8156 2.65925 34.4874 2.98744C34.1592 3.31563 33.7141 3.5 33.25 3.5V22.75C33.25 23.6783 32.8812 24.5685 32.2249 25.2249C31.5685 25.8813 30.6783 26.25 29.75 26.25H20.9037L24.9165 30.2627C25.2353 30.5928 25.4117 31.0349 25.4077 31.4937C25.4037 31.9525 25.2196 32.3915 24.8952 32.7159C24.5707 33.0404 24.1318 33.2244 23.673 33.2284C23.2141 33.2324 22.7721 33.056 22.442 32.7373L17.493 27.7882L12.5422 32.7373C12.2122 33.056 11.7701 33.2324 11.3113 33.2284C10.8525 33.2244 10.4135 33.0404 10.0891 32.7159C9.7646 32.3915 9.58056 31.9525 9.57657 31.4937C9.57258 31.0349 9.74897 30.5928 10.0677 30.2627L14.0805 26.25H5.25C4.32174 26.25 3.4315 25.8813 2.77513 25.2249C2.11875 24.5685 1.75 23.6783 1.75 22.75V3.5C1.28587 3.5 0.840752 3.31563 0.512563 2.98744C0.184374 2.65925 0 2.21413 0 1.75ZM24.9253 7.301C25.2553 6.98222 25.6974 6.80583 26.1562 6.80982C26.615 6.81381 27.054 6.99785 27.3784 7.32232C27.7029 7.64678 27.8869 8.0857 27.8909 8.54455C27.8949 9.00339 27.7185 9.44545 27.3997 9.7755L19.9867 17.1885C19.6553 17.5198 19.2059 17.7059 18.7372 17.7059C18.2686 17.7059 17.8192 17.5198 17.4878 17.1885L13.79 13.4907L10.0782 17.2008C9.74842 17.5198 9.30649 17.6965 8.84764 17.6928C8.38879 17.6892 7.94973 17.5054 7.62504 17.1812C7.30034 16.8569 7.11598 16.4182 7.11167 15.9593C7.10736 15.5005 7.28345 15.0583 7.602 14.728L12.5405 9.7895C12.8719 9.45822 13.3214 9.27212 13.79 9.27212C14.2586 9.27212 14.7081 9.45822 15.0395 9.7895L18.7372 13.4872L24.9253 7.301Z" fill="white"/>
</svg>
