<svg width="48" height="38" viewBox="0 0 48 38" fill="none" xmlns="http://www.w3.org/2000/svg">
<path d="M43.2476 29.8268C44.216 29.8266 45.1473 30.1991 45.8485 30.867C46.5497 31.535 46.967 32.4471 47.0138 33.4144C47.0607 34.3816 46.7335 35.3298 46.1002 36.0624C45.4668 36.795 44.5759 37.2558 43.612 37.3492L43.2476 37.3668H23.1408C22.1726 37.3663 21.2417 36.9934 20.541 36.3253C19.8403 35.6571 19.4235 34.745 19.377 33.778C19.3304 32.8109 19.6578 31.863 20.2911 31.1307C20.9244 30.3984 21.8152 29.9378 22.7789 29.8444L23.1408 29.8268H43.2476ZM1.2319 1.63454C1.89165 0.974886 2.77256 0.583293 3.70429 0.535476C4.63602 0.487659 5.55238 0.787015 6.2762 1.37566L6.56272 1.63454L20.7807 15.8526C21.4404 16.5123 21.832 17.3932 21.8798 18.3249C21.9276 19.2567 21.6283 20.173 21.0396 20.8968L20.7807 21.1834L6.56272 35.4014C5.87963 36.0869 4.95906 36.4836 3.99162 36.5091C3.02418 36.5346 2.08396 36.1872 1.36564 35.5386C0.647326 34.8901 0.205929 33.9901 0.132843 33.0251C0.0597577 32.0601 0.360582 31.1039 0.973029 30.3546L1.2319 30.0681L12.7833 18.5167L1.2319 6.96535C0.525134 6.25837 0.128092 5.29962 0.128092 4.29994C0.128092 3.30027 0.525134 2.34152 1.2319 1.63454Z" fill="white"/>
</svg>
