<svg width="44" height="44" viewBox="0 0 44 44" fill="none" xmlns="http://www.w3.org/2000/svg">
<path d="M31.7778 0C35.0193 0 38.1281 1.28769 40.4202 3.57981C42.7123 5.87192 44 8.98069 44 12.2222V31.7778C44 35.0193 42.7123 38.1281 40.4202 40.4202C38.1281 42.7123 35.0193 44 31.7778 44H12.2222C8.98069 44 5.87192 42.7123 3.57981 40.4202C1.28769 38.1281 0 35.0193 0 31.7778V12.2222C0 8.98069 1.28769 5.87192 3.57981 3.57981C5.87192 1.28769 8.98069 0 12.2222 0H31.7778ZM22 12.2222C19.4068 12.2222 16.9198 13.2524 15.0861 15.0861C13.2524 16.9198 12.2222 19.4068 12.2222 22C12.2222 24.5932 13.2524 27.0802 15.0861 28.9139C16.9198 30.7476 19.4068 31.7778 22 31.7778C24.5932 31.7778 27.0802 30.7476 28.9139 28.9139C30.7476 27.0802 31.7778 24.5932 31.7778 22C31.7778 19.4068 30.7476 16.9198 28.9139 15.0861C27.0802 13.2524 24.5932 12.2222 22 12.2222ZM22 17.1111C23.2966 17.1111 24.5401 17.6262 25.457 18.543C26.3738 19.4599 26.8889 20.7034 26.8889 22C26.8889 23.2966 26.3738 24.5401 25.457 25.457C24.5401 26.3738 23.2966 26.8889 22 26.8889C20.7034 26.8889 19.4599 26.3738 18.543 25.457C17.6262 24.5401 17.1111 23.2966 17.1111 22C17.1111 20.7034 17.6262 19.4599 18.543 18.543C19.4599 17.6262 20.7034 17.1111 22 17.1111ZM33 8.55556C32.3517 8.55556 31.7299 8.8131 31.2715 9.27152C30.8131 9.72994 30.5556 10.3517 30.5556 11C30.5556 11.6483 30.8131 12.2701 31.2715 12.7285C31.7299 13.1869 32.3517 13.4444 33 13.4444C33.6483 13.4444 34.2701 13.1869 34.7285 12.7285C35.1869 12.2701 35.4444 11.6483 35.4444 11C35.4444 10.3517 35.1869 9.72994 34.7285 9.27152C34.2701 8.8131 33.6483 8.55556 33 8.55556Z" fill="white"/>
</svg>
