<svg width="18" height="15" viewBox="0 0 18 15" fill="none" xmlns="http://www.w3.org/2000/svg">
<path d="M10.8947 11.3684C11.2597 11.3686 11.6106 11.5092 11.8747 11.761C12.1388 12.0129 12.2959 12.3567 12.3134 12.7212C12.331 13.0857 12.2076 13.443 11.9689 13.719C11.7302 13.9951 11.3944 14.1687 11.0312 14.2039L10.8947 14.2105H7.10526C6.74032 14.2103 6.38944 14.0698 6.12532 13.8179C5.8612 13.5661 5.70409 13.2223 5.68656 12.8578C5.66902 12.4932 5.79239 12.1359 6.03111 11.8599C6.26983 11.5839 6.6056 11.4103 6.96884 11.3751L7.10526 11.3684H10.8947ZM13.7368 5.68421C14.1137 5.68421 14.4752 5.83393 14.7417 6.10043C15.0082 6.36693 15.1579 6.72838 15.1579 7.10526C15.1579 7.48215 15.0082 7.8436 14.7417 8.1101C14.4752 8.3766 14.1137 8.52632 13.7368 8.52632H4.26316C3.88627 8.52632 3.52482 8.3766 3.25832 8.1101C2.99182 7.8436 2.84211 7.48215 2.84211 7.10526C2.84211 6.72838 2.99182 6.36693 3.25832 6.10043C3.52482 5.83393 3.88627 5.68421 4.26316 5.68421H13.7368ZM16.5789 0C16.9558 0 17.3173 0.149717 17.5838 0.416216C17.8503 0.682716 18 1.04417 18 1.42105C18 1.79794 17.8503 2.15939 17.5838 2.42589C17.3173 2.69239 16.9558 2.8421 16.5789 2.8421H1.42105C1.04417 2.8421 0.682716 2.69239 0.416217 2.42589C0.149718 2.15939 0 1.79794 0 1.42105C0 1.04417 0.149718 0.682716 0.416217 0.416216C0.682716 0.149717 1.04417 0 1.42105 0H16.5789Z" fill="white"/>
<path d="M17.5838 6.10043C17.3173 5.83393 16.9558 5.68421 16.5789 5.68421H1.42105C1.04417 5.68421 0.682716 5.83393 0.416217 6.10043C0.149718 6.36693 0 6.72838 0 7.10526C0 7.48215 0.149718 7.8436 0.416217 8.1101C0.682716 8.3766 1.04417 8.52631 1.42105 8.52631H16.5789C16.9558 8.52631 17.3173 8.3766 17.5838 8.1101C17.8503 7.8436 18 7.48215 18 7.10526C18 6.72838 17.8503 6.36693 17.5838 6.10043Z" fill="white"/>
<path d="M17.5838 11.778C17.3173 11.5115 16.9558 11.3618 16.5789 11.3618H1.42105C1.04417 11.3618 0.682716 11.5115 0.416217 11.778C0.149718 12.0445 0 12.406 0 12.7828C0 13.1597 0.149718 13.5212 0.416217 13.7877C0.682716 14.0542 1.04417 14.2039 1.42105 14.2039H16.5789C16.9558 14.2039 17.3173 14.0542 17.5838 13.7877C17.8503 13.5212 18 13.1597 18 12.7828C18 12.406 17.8503 12.0445 17.5838 11.778Z" fill="white"/>
</svg>
