<svg width="18" height="18" viewBox="0 0 18 18" fill="none" xmlns="http://www.w3.org/2000/svg">
<path fill-rule="evenodd" clip-rule="evenodd" d="M9.01025 11.4229L15.072 17.4777C15.3937 17.799 15.8299 17.9795 16.2848 17.9795C16.7397 17.9795 17.176 17.799 17.4976 17.4777C17.8193 17.1564 18 16.7207 18 16.2663C18 15.8119 17.8193 15.3761 17.4976 15.0549L11.4336 9L17.4965 2.94514C17.6557 2.78606 17.7819 2.59721 17.8681 2.38938C17.9542 2.18155 17.9985 1.95881 17.9985 1.73388C17.9984 1.50895 17.954 1.28624 17.8678 1.07845C17.7815 0.870661 17.6552 0.681872 17.4959 0.52286C17.3367 0.363848 17.1476 0.237728 16.9395 0.1517C16.7315 0.0656717 16.5085 0.0214209 16.2833 0.0214739C16.0581 0.0215269 15.8351 0.0658824 15.6271 0.152008C15.4191 0.238134 15.2301 0.364344 15.0709 0.523431L9.01025 6.57829L2.94849 0.523431C2.79039 0.359781 2.60126 0.229218 2.39211 0.139362C2.18296 0.0495057 1.95799 0.00215441 1.73033 7.18222e-05C1.50266 -0.00201076 1.27686 0.0412166 1.0661 0.127232C0.855339 0.213247 0.663839 0.340328 0.502773 0.501058C0.341707 0.661789 0.214301 0.852951 0.127989 1.06339C0.0416772 1.27383 -0.00181243 1.49933 5.78591e-05 1.72674C0.00192814 1.95415 0.0491207 2.1789 0.138882 2.3879C0.228644 2.59689 0.359177 2.78594 0.522865 2.944L6.58692 9L0.524008 15.056C0.360321 15.2141 0.229788 15.4031 0.140026 15.6121C0.0502643 15.8211 0.00307114 16.0459 0.00120086 16.2733C-0.000669427 16.5007 0.0428202 16.7262 0.129132 16.9366C0.215444 17.147 0.34285 17.3382 0.503916 17.4989C0.664982 17.6597 0.856482 17.7868 1.06724 17.8728C1.278 17.9588 1.5038 18.002 1.73147 17.9999C1.95913 17.9978 2.1841 17.9505 2.39325 17.8606C2.6024 17.7708 2.79154 17.6402 2.94963 17.4766L9.01025 11.4229Z" fill="white"/>
</svg>
