<svg width="44" height="44" viewBox="0 0 44 44" fill="none" xmlns="http://www.w3.org/2000/svg">
<path fill-rule="evenodd" clip-rule="evenodd" d="M40.9518 4.05515C41.1632 3.81344 41.3249 3.53246 41.4277 3.22827C41.5304 2.92407 41.5723 2.6026 41.5509 2.28222C41.5294 1.96184 41.4451 1.64883 41.3026 1.36104C41.1602 1.07326 40.9625 0.816347 40.7208 0.604972C40.4791 0.393598 40.1981 0.231901 39.8939 0.129114C39.5896 0.0263268 39.2682 -0.0155371 38.9478 0.00591225C38.6274 0.0273616 38.3143 0.111704 38.0265 0.254125C37.7388 0.396545 37.4818 0.594253 37.2704 0.835962L24.7793 15.1109L14.1778 0.977734C13.9501 0.674157 13.6548 0.427759 13.3154 0.258055C12.976 0.0883504 12.6017 0 12.2222 0H2.44445C1.99048 0 1.54549 0.126408 1.15933 0.365059C0.773161 0.603711 0.461086 0.945176 0.258068 1.35119C0.0550495 1.75721 -0.03089 2.21174 0.00987841 2.66385C0.0506468 3.11596 0.216513 3.54778 0.48889 3.91093L16.2238 24.8882L3.04822 39.9453C2.83684 40.187 2.67513 40.468 2.57234 40.7722C2.46955 41.0764 2.42769 41.3979 2.44914 41.7182C2.47059 42.0386 2.55493 42.3516 2.69736 42.6394C2.83979 42.9272 3.0375 43.1841 3.27922 43.3955C3.52094 43.6068 3.80193 43.7686 4.10614 43.8713C4.41036 43.9741 4.73184 44.016 5.05223 43.9945C5.37262 43.9731 5.68565 43.8887 5.97345 43.7463C6.26125 43.6039 6.51817 43.4062 6.72956 43.1645L19.2207 28.8871L29.8222 43.0203C30.0499 43.3238 30.3452 43.5702 30.6846 43.7399C31.024 43.9097 31.3983 43.998 31.7778 43.998H41.5555C42.0095 43.998 42.4545 43.8716 42.8407 43.6329C43.2268 43.3943 43.5389 43.0528 43.7419 42.6468C43.9449 42.2408 44.0309 41.7863 43.9901 41.3342C43.9494 40.882 43.7835 40.4502 43.5111 40.0871L27.7762 19.1098L40.9518 4.05515ZM33 39.1093L7.33333 4.88867H11L36.6667 39.1093H33Z" fill="white"/>
</svg>
